<svg xmlns="http://www.w3.org/2000/svg" viewBox="0 0 95 59.8"><defs><style>.a,.b{fill:#fff;}.b{font-size:30px;font-family:BrandonGrotesque-BoldItalic, Brandon Grotesque;font-weight:700;font-style:italic;letter-spacing:-0.05em;}</style></defs><title>i_360</title><path class="a" d="M79.7,26.38v.19a3.16,3.16,0,0,0,2.08,2.95C86.3,31.21,88.6,33,88.6,34.1c0,1.5-5.7,6.3-23.9,8.6a3.33,3.33,0,0,0-2.8,3.6,3.26,3.26,0,0,0,3.6,2.8C74.3,48,95,44.3,95,34.2c0-4.58-4.3-8.12-11-10.74A3.15,3.15,0,0,0,79.7,26.38Z"/><path class="a" d="M39.69,54.31a3.28,3.28,0,0,0-.53,4A3.11,3.11,0,0,0,41.9,59.8a3.34,3.34,0,0,0,2.3-.9l9.7-9.7a3.39,3.39,0,0,0,0-4.6L44.1,35a3.18,3.18,0,0,0-5.3,1.44,3.45,3.45,0,0,0,1,3.24l4,4C19.2,43.1,6.4,37,6.4,34.2c0-1.14,2.22-2.89,6.73-4.58a3.16,3.16,0,0,0,2.07-2.95v-.21a3.15,3.15,0,0,0-4.29-2.93C4.29,26.09,0,29.62,0,34.2,0,44.6,22.1,49.7,43.9,50.1Z"/><text class="b" transform="translate(26.25 25.5)">360°</text></svg>