<?xml version="1.0" encoding="UTF-8"?>
<svg width="35px" height="12px" viewBox="0 0 35 12" version="1.1" xmlns="http://www.w3.org/2000/svg" xmlns:xlink="http://www.w3.org/1999/xlink">
    <!-- Generator: Sketch 43.2 (39069) - http://www.bohemiancoding.com/sketch -->
    <title>UI/Hand Vector White</title>
    <desc>Created with Sketch.</desc>
    <defs></defs>
    <g id="Working" stroke="none" stroke-width="1" fill="none" fill-rule="evenodd">
        <g id="3_Map-Copy-2" transform="translate(-56.000000, -792.000000)" fill="#FFFFFF">
            <g id="UI/Hand-Vector-White" transform="translate(56.000000, 792.000000)">
                <rect id="Rectangle-18" x="11" y="4" width="1" height="4"></rect>
                <rect id="Rectangle-19" x="12" y="8" width="1" height="1"></rect>
                <rect id="Rectangle-20" x="13" y="9" width="1" height="1"></rect>
                <rect id="Rectangle-21" x="14" y="10" width="1" height="1"></rect>
                <rect id="Rectangle-22" x="14" y="11" width="5" height="1"></rect>
                <rect id="Rectangle-23" x="19" y="10" width="1" height="1"></rect>
                <rect id="Rectangle-24" x="20" y="11" width="2" height="1"></rect>
                <rect id="Rectangle-25" x="21" y="9" width="1" height="2"></rect>
                <rect id="Rectangle-26" x="22" y="7" width="1" height="2"></rect>
                <rect id="Rectangle-27" x="23" y="2" width="1" height="5"></rect>
                <rect id="Rectangle-28" x="21" y="1" width="2" height="1"></rect>
                <rect id="Rectangle-29" x="21" y="2" width="1" height="1"></rect>
                <rect id="Rectangle-30" x="14" y="0" width="7" height="1"></rect>
                <rect id="Rectangle-31" x="13" y="1" width="1" height="5"></rect>
                <rect id="Rectangle-32" x="12" y="3" width="1" height="1"></rect>
                <rect id="Rectangle-33" x="16" y="1" width="1" height="2"></rect>
                <rect id="Rectangle-34" x="19" y="1" width="1" height="2"></rect>
                <rect id="Rectangle-35" x="16" y="5" width="1" height="4"></rect>
                <rect id="Rectangle-36" x="18" y="5" width="1" height="4"></rect>
                <rect id="Rectangle-37" x="20" y="5" width="1" height="4"></rect>
                <g id="Group-3" stroke-width="1" transform="translate(0.000000, 3.000000)">
                    <rect id="Rectangle-2-Copy" x="0" y="2" width="9" height="1"></rect>
                    <rect id="Rectangle-3" x="1" y="1" width="1" height="1"></rect>
                    <rect id="Rectangle" x="2" y="0" width="1" height="1"></rect>
                    <rect id="Rectangle-4" x="1" y="3" width="1" height="1"></rect>
                    <rect id="Rectangle-5" x="2" y="4" width="1" height="1"></rect>
                </g>
                <g id="Group-2" stroke-width="1" transform="translate(30.500000, 5.500000) scale(-1, 1) translate(-30.500000, -5.500000) translate(26.000000, 3.000000)">
                    <rect id="Rectangle-2-Copy-2" x="0" y="2" width="9" height="1"></rect>
                    <rect id="Rectangle-3-Copy" x="1" y="1" width="1" height="1"></rect>
                    <rect id="Rectangle-Copy" x="2" y="0" width="1" height="1"></rect>
                    <rect id="Rectangle-4-Copy" x="1" y="3" width="1" height="1"></rect>
                    <rect id="Rectangle-5-Copy" x="2" y="4" width="1" height="1"></rect>
                </g>
            </g>
        </g>
    </g>
</svg>